<svg width="31" height="28" viewBox="0 0 31 28" fill="none" xmlns="http://www.w3.org/2000/svg">
<path d="M15.6667 16.6517C17.1461 16.6517 18.3453 15.4524 18.3453 13.9731C18.3453 12.4938 17.1461 11.2945 15.6667 11.2945C14.1874 11.2945 12.9882 12.4938 12.9882 13.9731C12.9882 15.4524 14.1874 16.6517 15.6667 16.6517Z" fill="#32A4D5"/>
<path d="M15.6666 20.1145C12.4471 20.1924 9.23569 19.7584 6.15234 18.8288C4.72801 18.3773 3.39956 17.666 2.23413 16.731C1.78941 16.4115 1.41906 15.9996 1.14849 15.5236C0.877925 15.0476 0.713543 14.5186 0.666626 13.9731C0.666626 12.202 2.61234 10.4663 5.87163 9.3306C9.03741 8.32426 12.3451 7.83654 15.6666 7.88631C18.9438 7.84053 22.2072 8.31944 25.3331 9.30488C26.7048 9.7422 27.9882 10.4191 29.1238 11.3042C29.5609 11.6087 29.9257 12.0057 30.1923 12.4669C30.4589 12.9281 30.6209 13.4423 30.6666 13.9731C30.6666 15.8138 28.4916 17.6792 24.9881 18.8385C21.9644 19.7378 18.8207 20.1681 15.6666 20.1145ZM15.6666 9.16774C12.4889 9.12527 9.32465 9.58893 6.2927 10.5413C3.2927 11.5881 1.94805 13.0195 1.94805 13.9699C1.94805 14.9642 3.39341 16.5274 6.56698 17.6127C9.5167 18.4976 12.588 18.9095 15.6666 18.8331C18.6842 18.8871 21.6923 18.4788 24.5863 17.6224C27.8809 16.5306 29.3809 14.9652 29.3809 13.9731C29.3269 13.6326 29.2028 13.3071 29.0165 13.017C28.8303 12.7269 28.5859 12.4786 28.2988 12.2877C27.2828 11.5025 26.1363 10.9026 24.912 10.5156C21.9217 9.57677 18.8005 9.12175 15.6666 9.16774Z" fill="#32A4D5"/>
<path d="M9.58081 27.3327C9.08099 27.3442 8.58706 27.2229 8.14938 26.9813C6.61509 26.0963 6.08367 23.5442 6.72759 20.1531C7.43757 16.9078 8.66774 13.7988 10.3705 10.9463C11.9677 8.08464 14.0124 5.49694 16.4272 3.28131C17.4913 2.31136 18.7189 1.53761 20.0529 0.995957C20.5355 0.769821 21.0618 0.652597 21.5947 0.652597C22.1276 0.652597 22.654 0.769821 23.1365 0.995957C24.7319 1.91524 25.2601 4.73096 24.5155 8.34489C23.7835 11.4141 22.5853 14.3529 20.9626 17.0588C19.4216 19.8867 17.4412 22.4519 15.0955 24.6585C13.9927 25.6664 12.713 26.4616 11.3208 27.0038C10.7635 27.2107 10.1752 27.3219 9.58081 27.3327ZM11.4805 11.5827C9.85627 14.3142 8.67723 17.2867 7.98759 20.3888C7.39509 23.512 7.96402 25.3902 8.79117 25.8681C9.64831 26.3642 11.729 25.8938 14.2554 23.6867C16.4948 21.5727 18.385 19.1172 19.8558 16.4117C21.4104 13.8247 22.5598 11.015 23.264 8.08024C23.9647 4.67846 23.3594 2.5956 22.5001 2.1006C22.178 1.9772 21.8339 1.92196 21.4894 1.93837C21.1449 1.95479 20.8075 2.0425 20.4987 2.19596C19.3112 2.68597 18.2194 3.38163 17.2737 4.25096C14.9665 6.37323 13.0133 8.85053 11.488 11.5892L11.4805 11.5827Z" fill="#32A4D5"/>
<path d="M21.7493 27.3467C20.2975 27.3467 18.4536 26.4681 16.5336 24.817C14.0765 22.5812 11.9971 19.9628 10.3761 17.0631C8.69471 14.2499 7.47428 11.1858 6.76106 7.98703C6.45175 6.57969 6.39444 5.12866 6.59178 3.70131C6.6374 3.17182 6.79863 2.65878 7.0641 2.19838C7.32957 1.73798 7.69281 1.34142 8.12821 1.03667C9.72142 0.11417 12.4246 1.06238 15.1836 3.51167C17.4771 5.6783 19.4247 8.18385 20.9586 10.941C22.6389 13.6885 23.8721 16.6855 24.6121 19.8199C24.9348 21.2789 24.9845 22.7849 24.7589 24.262C24.7052 24.8067 24.5344 25.3334 24.2581 25.8059C23.9818 26.2784 23.6066 26.6856 23.1582 26.9995C22.7277 27.2382 22.2414 27.358 21.7493 27.3467ZM11.485 16.4181C13.0401 19.1893 15.0264 21.6953 17.3693 23.842C19.7789 25.9152 21.6903 26.361 22.5121 25.8777C23.3693 25.3795 24.0014 23.346 23.35 20.0556C22.6363 17.063 21.4534 14.2023 19.8453 11.5795C18.3816 8.94073 16.5226 6.54152 14.3328 4.46524C11.7357 2.15953 9.62928 1.64417 8.77106 2.14131C8.50358 2.35869 8.28407 2.62916 8.12639 2.93566C7.96872 3.24215 7.87631 3.57801 7.85499 3.92203C7.68464 5.19498 7.74013 6.488 8.01892 7.74167C8.70496 10.8007 9.87543 13.7305 11.4861 16.4202L11.485 16.4181Z" fill="#32A4D5"/>
</svg>
