<svg width="27" height="28" viewBox="0 0 27 28" fill="none" xmlns="http://www.w3.org/2000/svg">
<path d="M13.5 19.5556C16.5682 19.5556 19.0556 17.0682 19.0556 14C19.0556 10.9318 16.5682 8.44446 13.5 8.44446C10.4318 8.44446 7.94446 10.9318 7.94446 14C7.94446 17.0682 10.4318 19.5556 13.5 19.5556Z" stroke="#1E1E1E" stroke-width="2" stroke-linecap="round" stroke-linejoin="round"/>
<path d="M1 19.5556V8.44444C1 4.60914 4.10914 1.5 7.94444 1.5H19.0556C22.8908 1.5 26 4.60914 26 8.44444V19.5556C26 23.3908 22.8908 26.5 19.0556 26.5H7.94444C4.10914 26.5 1 23.3908 1 19.5556Z" stroke="#1E1E1E" stroke-width="2"/>
<path d="M21.1389 6.37499L21.1527 6.35956" stroke="#1E1E1E" stroke-width="2" stroke-linecap="round" stroke-linejoin="round"/>
</svg>
