<svg width="31" height="30" viewBox="0 0 31 30" fill="none" xmlns="http://www.w3.org/2000/svg">
<path d="M29.7657 13.6641L16.6693 0.567693C16.4901 0.387924 16.2772 0.245286 16.0429 0.147961C15.8085 0.0506351 15.5572 0.000535965 15.3034 0.000535965C15.0496 0.000535965 14.7983 0.0506351 14.5639 0.147961C14.3295 0.245286 14.1166 0.387924 13.9375 0.567693L11.2175 3.28768L14.667 6.7372C15.0738 6.59877 15.5113 6.57739 15.9296 6.6755C16.348 6.7736 16.7303 6.98724 17.0331 7.29207C17.336 7.59691 17.5471 7.98068 17.6424 8.39965C17.7377 8.81863 17.7135 9.25595 17.5724 9.6618L20.8933 12.9828C21.3897 12.8122 21.9296 12.817 22.4229 12.9961C22.9163 13.1753 23.3333 13.5182 23.6046 13.9675C23.8759 14.4169 23.985 14.9456 23.9137 15.4656C23.8425 15.9856 23.5952 16.4655 23.213 16.8254C22.8309 17.1852 22.337 17.4032 21.8137 17.4431C21.2903 17.483 20.7691 17.3423 20.3368 17.0446C19.9046 16.7468 19.5874 16.3099 19.4382 15.8067C19.289 15.3035 19.3167 14.7643 19.5167 14.279L16.4154 11.1777V19.3376C16.8852 19.5704 17.261 19.9571 17.4804 20.4333C17.6997 20.9095 17.7493 21.4465 17.6208 21.9549C17.4923 22.4632 17.1935 22.9121 16.7743 23.2269C16.355 23.5418 15.8405 23.7034 15.3165 23.685C14.7926 23.6666 14.2907 23.4692 13.8946 23.1257C13.4984 22.7823 13.2319 22.3134 13.1394 21.7973C13.047 21.2813 13.1341 20.7491 13.3863 20.2894C13.6385 19.8298 14.0406 19.4704 14.5256 19.2712V11.0363C14.2451 10.9211 13.99 10.7516 13.7752 10.5375C13.5604 10.3234 13.3901 10.0689 13.2741 9.78874C13.1581 9.50853 13.0987 9.20813 13.0993 8.90486C13.0999 8.60159 13.1605 8.30143 13.2776 8.02167L9.88162 4.62357L0.901069 13.6073C0.721139 13.7865 0.578365 13.9994 0.480944 14.2339C0.383524 14.4684 0.333374 14.7198 0.333374 14.9738C0.333374 15.2277 0.383524 15.4791 0.480944 15.7136C0.578365 15.9481 0.721139 16.161 0.901069 16.3402L13.9975 29.4323C14.1766 29.6121 14.3895 29.7547 14.6239 29.852C14.8583 29.9494 15.1096 29.9995 15.3634 29.9995C15.6172 29.9995 15.8685 29.9494 16.1028 29.852C16.3372 29.7547 16.5501 29.6121 16.7293 29.4323L29.7657 16.3927C29.9456 16.2135 30.0884 16.0006 30.1858 15.7661C30.2832 15.5316 30.3334 15.2802 30.3334 15.0262C30.3334 14.7723 30.2832 14.5209 30.1858 14.2864C30.0884 14.0519 29.9456 13.839 29.7657 13.6598" fill="#FF6752"/>
<path d="M11.2175 3.28768L14.667 6.73721C15.0738 6.59878 15.5113 6.5774 15.9296 6.6755C16.3479 6.7736 16.7303 6.98724 17.0331 7.29207C17.3359 7.59691 17.5471 7.98068 17.6424 8.39965C17.7377 8.81863 17.7134 9.25596 17.5723 9.66181L20.8933 12.9828C21.3897 12.8122 21.9296 12.817 22.4229 12.9961C22.9163 13.1753 23.3333 13.5182 23.6046 13.9675C23.8758 14.4169 23.9849 14.9456 23.9137 15.4656C23.8424 15.9856 23.5952 16.4655 23.213 16.8254C22.8309 17.1852 22.337 17.4032 21.8136 17.4431C21.2903 17.483 20.769 17.3423 20.3368 17.0446C19.9045 16.7468 19.5874 16.3099 19.4382 15.8067C19.2889 15.3035 19.3167 14.7643 19.5167 14.279L16.4153 11.1777V19.3376C16.8851 19.5704 17.261 19.9571 17.4803 20.4333C17.6997 20.9095 17.7492 21.4465 17.6207 21.9549C17.4923 22.4632 17.1935 22.9121 16.7742 23.2269C16.355 23.5418 15.8405 23.7034 15.3165 23.685C14.7925 23.6666 14.2907 23.4692 13.8945 23.1257C13.4984 22.7823 13.2319 22.3134 13.1394 21.7974C13.0469 21.2813 13.1341 20.7491 13.3863 20.2894C13.6385 19.8298 14.0406 19.4704 14.5256 19.2712V11.0363C14.245 10.9211 13.99 10.7517 13.7752 10.5375C13.5604 10.3234 13.3901 10.0689 13.2741 9.78874C13.1581 9.50853 13.0987 9.20814 13.0993 8.90486C13.0999 8.60159 13.1605 8.30143 13.2776 8.02167L9.88159 4.62357" fill="white"/>
</svg>
