<svg width="27" height="28" viewBox="0 0 27 28" fill="none" xmlns="http://www.w3.org/2000/svg">
<path d="M13.5 26.5C6.5965 26.5 1 20.9035 1 14C1 7.09644 6.5965 1.5 13.5 1.5C20.4036 1.5 26 7.09644 26 14C26 20.9035 20.4036 26.5 13.5 26.5Z" stroke="#1E1E1E" stroke-width="2" stroke-linecap="round" stroke-linejoin="round"/>
<path d="M10.5834 22.75V20.4212C10.5522 20.0344 10.6058 19.6454 10.7409 19.2802C10.8759 18.9151 11.0893 18.5821 11.3667 18.3035C8.75005 18.0195 6.00005 17.0539 6.00005 12.6236C6.0003 11.4907 6.4478 10.4013 7.25005 9.58076C6.87017 8.58964 6.89705 7.4941 7.32505 6.52174C7.32505 6.52174 8.30842 6.23775 10.5834 7.72264C12.4934 7.2186 14.5067 7.2186 16.4167 7.72264C18.6917 6.23775 19.6751 6.52174 19.6751 6.52174C20.1031 7.4941 20.1299 8.58964 19.7501 9.58076C20.5583 10.4074 21.0063 11.5066 21.0001 12.6479C21.0001 17.0458 18.2501 18.0114 15.6334 18.3278C15.9075 18.6036 16.119 18.9326 16.254 19.2934C16.3889 19.654 16.4444 20.0382 16.4167 20.4212V22.75" stroke="#1E1E1E" stroke-width="2" stroke-linecap="round" stroke-linejoin="round"/>
<path d="M16.4167 21.1272C18.9167 21.9169 21 21.1272 22.25 18.693" stroke="#1E1E1E" stroke-width="2" stroke-linecap="round" stroke-linejoin="round"/>
</svg>
