<svg width="31" height="36" viewBox="0 0 31 36" fill="none" xmlns="http://www.w3.org/2000/svg">
<path d="M3.39688 31.61L0.666626 0.989059H30.6666L27.9327 31.6051L15.6484 35.0109L3.39688 31.61Z" fill="#F0775C"/>
<path d="M15.6666 32.4083L25.5937 29.6561L27.9291 3.49332H15.6666V32.4083Z" fill="#F1662A"/>
<path d="M15.6666 14.8493H10.697L10.3544 11.0037H15.6666V7.24788H15.6533H6.24988L6.33979 8.25638L7.26203 18.6051H15.6666V14.8493Z" fill="#EBEBEB"/>
<path d="M15.6667 24.6027L15.6497 24.6075L11.4675 23.4787L11.2002 20.4836H9.16736H7.42981L7.95593 26.3791L15.6497 28.5152L15.6667 28.5103V24.6027Z" fill="#EBEBEB"/>
<path d="M15.6533 14.8493V18.6051H20.2779L19.8429 23.4763L15.6533 24.6063V28.514L23.3532 26.3791L23.4091 25.7448L24.2912 15.8578L24.3836 14.8493H23.3714H15.6533Z" fill="white"/>
<path d="M15.6533 7.24788V9.58081V10.9951V11.0037H24.7129H24.725L24.8003 10.1604L24.9717 8.25638L25.0616 7.24788H15.6533Z" fill="white"/>
</svg>
