<?xml version="1.0" standalone="no"?>
<!DOCTYPE svg PUBLIC "-//W3C//DTD SVG 20010904//EN"
 "http://www.w3.org/TR/2001/REC-SVG-20010904/DTD/svg10.dtd">
<svg version="1.0" xmlns="http://www.w3.org/2000/svg"
 width="500.000000pt" height="500.000000pt" viewBox="0 0 500.000000 500.000000"
 preserveAspectRatio="xMidYMid meet">
<metadata>
Created by potrace 1.14, written by Peter Selinger 2001-2017
</metadata>
<g transform="translate(0.000000,500.000000) scale(0.100000,-0.100000)"
fill="#000000" stroke="none">
<path d="M3957 4854 c-1 -1 -411 -4 -912 -8 -862 -6 -1623 -12 -2588 -20 -319
-3 -431 -7 -442 -16 -13 -11 -15 -76 -15 -452 0 -284 4 -446 10 -459 11 -19
40 -19 1661 -19 1787 0 1691 3 1720 -51 37 -70 43 -52 -183 -498 -186 -366
-403 -777 -713 -1346 -168 -309 -175 -323 -166 -347 4 -12 19 -25 32 -28 19
-4 823 -5 876 -1 6 1 35 45 64 98 29 54 64 121 79 148 15 28 58 106 95 175 37
69 82 152 100 185 45 83 544 1005 587 1085 75 141 458 848 573 1060 67 124
143 264 168 311 50 91 57 130 31 167 l-16 23 -480 -3 c-264 -2 -480 -4 -481
-4z"/>
<path d="M1741 3371 c-10 -14 -42 -71 -71 -126 -43 -81 -231 -429 -605 -1120
-18 -33 -185 -341 -371 -685 -185 -344 -405 -749 -487 -900 -155 -287 -174
-335 -142 -375 15 -19 27 -20 298 -19 314 2 1921 13 2602 19 242 2 793 6 1225
10 713 5 786 7 798 22 9 13 12 121 12 459 0 399 -2 443 -17 455 -18 16 -1 16
-2069 18 l-1261 1 -25 25 c-14 13 -30 42 -37 65 -12 39 -11 41 82 222 52 101
156 305 232 453 76 149 195 376 265 505 70 129 148 273 173 320 25 47 110 205
190 353 153 284 162 311 108 321 -14 3 -219 4 -454 4 l-428 -1 -18 -26z"/>
</g>
</svg>
