<svg width="30" height="36" viewBox="0 0 30 36" fill="none" xmlns="http://www.w3.org/2000/svg">
<path d="M2.72932 31.6111L6.10352e-05 0.987686H30.0001L27.2672 31.6062L14.9818 35.0123L2.72932 31.6111Z" fill="#5552FF"/>
<path d="M15.0001 32.4094L24.928 29.6571L27.2635 3.49216H15.0001V32.4094Z" fill="#3935FE"/>
<path d="M15.0001 14.5866H19.9701L20.3128 10.7406H15.0001V6.98453H15.0134H24.4176L24.3277 7.9919L23.4054 18.3427H15.0001V14.5866Z" fill="white"/>
<path d="M15.0232 24.3407L15.0062 24.3456L10.8236 23.2155L10.5562 20.2201H8.52327H6.78558L7.31175 26.1173L15.005 28.2535L15.0232 28.2487V24.3407Z" fill="#EBEBEB"/>
<path d="M19.6507 18.1835L19.1986 23.2131L15.0099 24.3432V28.2511L22.7092 26.1173L22.7664 25.483L23.4189 18.1835H19.6507Z" fill="white"/>
<path d="M15.0136 6.98453V9.31764V10.7309V10.7406H5.95331H5.94115L5.86581 9.89606L5.69448 7.9919L5.60455 6.98453H15.0136Z" fill="#EBEBEB"/>
<path d="M15.0002 14.5866V16.9197V18.333V18.3427H10.882H10.8699L10.7945 17.4982L10.6244 15.594L10.5345 14.5866H15.0002Z" fill="#EBEBEB"/>
</svg>
