<svg width="31" height="30" viewBox="0 0 31 30" fill="none" xmlns="http://www.w3.org/2000/svg">
<path d="M0.333374 0H30.3334V30H0.333374V0Z" fill="#FCFF52"/>
<path d="M20.4859 23.4375C20.7415 23.9567 21.1387 24.3931 21.6315 24.6964C22.1244 24.9997 22.6929 25.1576 23.2716 25.1518C24.4395 25.1518 25.1863 24.5679 25.1863 23.7589C25.1863 22.7946 24.4191 22.4496 23.1334 21.8871L22.4284 21.585C20.3927 20.7182 19.0427 19.6329 19.0427 17.3379C19.0427 15.2239 20.6499 13.6136 23.1709 13.6136C23.987 13.5546 24.8024 13.7373 25.5154 14.1388C26.2284 14.5402 26.8074 15.1427 27.1802 15.8711L24.9763 17.28C24.8327 16.9188 24.5828 16.6099 24.2596 16.394C23.9364 16.1782 23.5552 16.0657 23.1666 16.0714C22.9971 16.0545 22.8259 16.073 22.6639 16.1258C22.5019 16.1787 22.3527 16.2647 22.2258 16.3784C22.0989 16.4921 21.9971 16.631 21.9268 16.7862C21.8565 16.9415 21.8194 17.1096 21.8177 17.28C21.8177 18.1254 22.3416 18.4682 23.5513 18.9943L24.2563 19.2964C26.652 20.3239 28.0063 21.3707 28.0063 23.7246C28.0063 26.2629 26.0124 27.6536 23.3349 27.6536C22.2916 27.72 21.2514 27.4832 20.3398 26.9716C19.4282 26.46 18.6841 25.6955 18.1974 24.7704L20.4859 23.4375ZM10.527 23.6818C10.9695 24.4671 11.3724 25.1314 12.3409 25.1314C13.2666 25.1314 13.8516 24.7693 13.8516 23.3604V13.7743H16.6706V23.3979C16.6706 26.3164 14.9563 27.645 12.4609 27.645C11.5789 27.6932 10.7029 27.4734 9.94809 27.0144C9.1933 26.5555 8.59505 25.8789 8.23199 25.0736L10.527 23.6818Z" fill="black"/>
</svg>
