<svg width="30" height="34" viewBox="0 0 30 34" fill="none" xmlns="http://www.w3.org/2000/svg">
<path d="M15.0001 33.9148C14.5437 33.915 14.0953 33.7949 13.7 33.5668L9.5631 31.1178C8.9457 30.7722 9.24654 30.6502 9.45073 30.5789C10.1074 30.376 10.7361 30.0919 11.3223 29.7331C11.3713 29.7104 11.4254 29.7006 11.4793 29.7047C11.5332 29.7087 11.5852 29.7264 11.6304 29.7561L14.8092 31.6445C14.8684 31.6759 14.9343 31.6922 15.0013 31.6922C15.0682 31.6922 15.1342 31.6759 15.1934 31.6445L27.5897 24.4895C27.6477 24.4547 27.6957 24.4055 27.7289 24.3466C27.7622 24.2877 27.7796 24.2212 27.7794 24.1536V9.84109C27.7794 9.77239 27.7617 9.70485 27.7281 9.64496C27.6945 9.58507 27.6459 9.53486 27.5873 9.49916L15.191 2.35015C15.1325 2.31723 15.0665 2.29993 14.9995 2.29993C14.9324 2.29993 14.8664 2.31723 14.808 2.35015L2.41892 9.50158C2.35982 9.53653 2.31075 9.58615 2.27646 9.64563C2.24217 9.70511 2.22382 9.77243 2.22319 9.84109V24.1476C2.22336 24.215 2.24146 24.2812 2.27564 24.3394C2.30982 24.3976 2.35885 24.4456 2.41771 24.4786L5.81763 26.4408C7.66016 27.3614 8.78863 26.2764 8.78863 25.1866V11.0614C8.78863 11.0138 8.798 10.9667 8.81622 10.9227C8.83444 10.8787 8.86113 10.8387 8.89479 10.8051C8.92845 10.7714 8.96841 10.7447 9.01238 10.7265C9.05636 10.7083 9.10349 10.6989 9.15109 10.6989H10.7218C10.8179 10.6989 10.9101 10.7371 10.9781 10.8051C11.0461 10.8731 11.0842 10.9653 11.0842 11.0614V25.1878C11.0842 27.6466 9.74553 29.0541 7.41368 29.0541C6.40769 29.0717 5.41748 28.8026 4.55867 28.2785L1.30011 26.4093C0.904525 26.179 0.576288 25.8489 0.348166 25.452C0.120043 25.0551 1.72415e-05 24.6053 6.96278e-05 24.1476V9.84109C-0.00110619 9.3826 0.118412 8.93189 0.346615 8.53423C0.574817 8.13657 0.903664 7.80598 1.30011 7.57568L13.6976 0.418214C14.097 0.19973 14.5449 0.0852165 15.0001 0.0852165C15.4553 0.0852165 15.9032 0.19973 16.3025 0.418214L28.6988 7.57568C29.0943 7.8056 29.4227 8.13523 29.651 8.53168C29.8793 8.92814 29.9997 9.37754 30.0001 9.83504V24.1476C29.9994 24.6053 29.8789 25.055 29.6506 25.4517C29.4224 25.8485 29.0942 26.1787 28.6988 26.4093L16.3025 33.5668C15.9065 33.7953 15.4573 33.9153 15.0001 33.9148Z" fill="#48B76E"/>
<path d="M12.6488 19.3594C12.6488 19.2633 12.687 19.1711 12.755 19.1031C12.8229 19.0351 12.9151 18.9969 13.0113 18.9969H14.6146C14.7002 18.9972 14.783 19.0278 14.8483 19.0834C14.9135 19.1389 14.957 19.2157 14.971 19.3002C15.2126 20.9325 15.9376 21.7553 19.2155 21.7553C21.8264 21.7553 22.9392 21.1645 22.9392 19.7787C22.9392 18.98 22.6238 18.3868 18.5654 17.9893C15.1728 17.6534 13.0753 16.9019 13.0753 14.1907C13.0753 11.6897 15.1836 10.1975 18.7177 10.1975C22.6891 10.1975 24.6548 11.5761 24.9037 14.5338C24.9075 14.5832 24.9012 14.6328 24.8851 14.6796C24.8689 14.7265 24.8434 14.7695 24.81 14.8061C24.7766 14.8426 24.736 14.872 24.6909 14.8923C24.6457 14.9126 24.5968 14.9234 24.5473 14.9241H22.9331C22.8522 14.9229 22.7739 14.8947 22.7108 14.8439C22.6478 14.7931 22.6035 14.7226 22.5852 14.6437C22.1997 12.9269 21.2561 12.3783 18.7189 12.3783C15.8675 12.3783 15.5364 13.3715 15.5364 14.1158C15.5364 15.0171 15.9279 15.2805 19.7773 15.7891C23.5868 16.293 25.3967 17.0058 25.3967 19.6832C25.3967 22.3848 23.1446 23.9313 19.2167 23.9313C13.7857 23.9385 12.6488 21.4484 12.6488 19.3594Z" fill="#48B76E"/>
</svg>
